<svg width="50" height="50" viewBox="0 0 50 50" fill="none" xmlns="http://www.w3.org/2000/svg">
<g clip-path="url(#clip0_5_56)">
<path fill-rule="evenodd" clip-rule="evenodd" d="M25 0.616211C11.1914 0.616211 0 11.8076 0 25.6162C0 36.6572 7.16406 46.0273 17.0957 49.3418C18.3418 49.5742 18.8076 48.7939 18.8076 48.1367C18.8076 47.5342 18.7803 45.5752 18.7803 43.4795C11.8213 44.9863 10.3555 40.5342 10.3555 40.5342C9.21875 37.6436 7.57422 36.8769 7.57422 36.8769C5.2998 35.3291 7.73828 35.3564 7.73828 35.3564C10.2451 35.5342 11.5742 37.9316 11.5742 37.9316C13.8066 41.7539 17.4238 40.6436 18.8486 40.0137C19.0674 38.3975 19.7256 37.3018 20.4375 36.6709C14.8896 36.041 9.04004 33.8896 9.04004 24.3145C9.04004 21.5889 10.0127 19.3555 11.6152 17.6025C11.3545 16.9727 10.5059 14.4248 11.8613 10.9863C11.8613 10.9863 13.957 10.3154 18.7383 13.5479C20.7383 13 22.875 12.7119 24.999 12.7119C27.1221 12.7256 29.2598 13 31.2598 13.5479C36.0273 10.3154 38.123 10.9863 38.123 10.9863C39.4795 14.4248 38.6299 16.9727 38.3691 17.6025C39.9717 19.3564 40.9443 21.5889 40.9443 24.3145C40.9443 33.917 35.0947 36.0264 29.5332 36.6436C30.4238 37.4248 31.2314 38.9453 31.2314 41.2734C31.2314 44.6162 31.2041 47.3144 31.2041 48.1367C31.2041 48.8076 31.6562 49.5752 32.916 49.3418C42.8496 46.0273 50 36.6709 50 25.6162C50 11.8076 38.8086 0.616211 25 0.616211Z" fill="white"/>
<path d="M9.46583 36.5068C9.41114 36.6298 9.21973 36.6709 9.04102 36.5888C8.86329 36.5068 8.75294 36.3427 8.82227 36.2187C8.87696 36.0957 9.06837 36.0546 9.24708 36.1367C9.42481 36.2187 9.53419 36.3837 9.46583 36.5068Z" fill="white"/>
<path d="M10.4795 37.6436C10.3564 37.7529 10.123 37.6983 9.97265 37.5342C9.80859 37.3565 9.78124 37.1231 9.90429 37.0137C10.0273 36.9043 10.2471 36.959 10.4111 37.1231C10.5752 37.3008 10.6025 37.5342 10.4795 37.6436Z" fill="white"/>
<path d="M11.4658 39.0821C11.3154 39.1914 11.0684 39.0957 10.9043 38.8633C10.7539 38.6446 10.7539 38.3702 10.9043 38.2608C11.0547 38.1514 11.3018 38.2471 11.4658 38.4659C11.6299 38.6983 11.6299 38.9727 11.4658 39.0821Z" fill="white"/>
<path d="M12.8223 40.4658C12.6855 40.6162 12.3975 40.5752 12.1787 40.3701C11.96 40.1651 11.9043 39.877 12.042 39.7266C12.1797 39.5762 12.4805 39.6172 12.6855 39.8223C12.9043 40.041 12.959 40.3281 12.8223 40.4658Z" fill="white"/>
<path d="M14.6846 41.2736C14.6299 41.465 14.3418 41.5616 14.0547 41.4786C13.7666 41.3966 13.5889 41.1632 13.6436 40.9718C13.6982 40.7804 13.9863 40.6837 14.2734 40.7667C14.5479 40.8488 14.7393 41.0821 14.6846 41.2736Z" fill="white"/>
<path d="M16.7256 41.4248C16.7393 41.6299 16.4932 41.8086 16.1914 41.8086C15.8896 41.8223 15.6572 41.6445 15.6436 41.4385C15.6436 41.2334 15.876 41.0547 16.1777 41.0547C16.4795 41.0547 16.7256 41.2188 16.7256 41.4248Z" fill="white"/>
<path d="M18.6299 41.1094C18.6709 41.3144 18.4658 41.5205 18.1641 41.5752C17.876 41.6299 17.6025 41.5068 17.5752 41.3008C17.5342 41.0957 17.7529 40.8896 18.041 40.8349C18.3291 40.7803 18.5889 40.9043 18.6299 41.1094Z" fill="white"/>
</g>
<defs>
<clipPath id="clip0_5_56">
<rect width="50" height="50" fill="white"/>
</clipPath>
</defs>
</svg>
